<svg xmlns="http://www.w3.org/2000/svg" xmlns:xlink="http://www.w3.org/1999/xlink" version="1.1" x="0px" y="0px" viewBox="0 0 100 125" enable-background="new 0 0 100 100" xml:space="preserve"><circle fill-rule="evenodd" clip-rule="evenodd" cx="49.9996338" cy="19.9605541" r="1.3619276"/><circle fill-rule="evenodd" clip-rule="evenodd" cx="49.9996338" cy="32.0665703" r="1.3619276"/><circle fill-rule="evenodd" clip-rule="evenodd" cx="49.9996338" cy="44.1725883" r="1.3619276"/><circle fill-rule="evenodd" clip-rule="evenodd" cx="49.9996338" cy="56.2781792" r="1.3619276"/><circle fill-rule="evenodd" clip-rule="evenodd" cx="49.9996338" cy="68.38414" r="1.3619276"/><circle fill-rule="evenodd" clip-rule="evenodd" cx="49.9996338" cy="80.4893646" r="1.3619276"/><circle fill-rule="evenodd" clip-rule="evenodd" cx="14.6175537" cy="82.8989716" r="1.3619276"/><circle fill-rule="evenodd" clip-rule="evenodd" cx="85.3955078" cy="82.8989716" r="1.3619276"/><path d="M56.4473877,35.5644608v5.1890678v3.5007515c0,2.3266602,1.8934975,4.2201576,4.2201576,4.2201576h4.0656319  c2.3266602,0,4.2201538-1.8934975,4.2201538-4.2201576v-3.5007515v-5.1890678H56.4473877z M58.3142891,37.4313583h8.7721443  v1.4552727h-8.7721443V37.4313583z M67.0864334,44.2542801c0,1.2969513-1.0563049,2.3532562-2.3532562,2.3532562h-4.0656319  c-1.2969513,0-2.3532562-1.0563049-2.3532562-2.3532562v-3.5007515h8.7721443V44.2542801z"/><path d="M89.4335022,70.3858032c-2.1531448-33.7409744-4.0124435-51.2156067-8.2034683-53.0875702l-15.7845764-7.0482893  l-3.222271-2.9911237C61.0057144,5.0064912,57.2944756,5,54.6792793,5c-0.6915359,0-1.4198036,0.0101323-2.1759377,0.0202646  c-1.6135864,0.0189986-3.3994293,0.0189986-5.0079498,0C46.7392578,5.0101323,46.0109901,5,45.3194542,5  c-2.6151161,0-6.3261185,0.0064912-7.5437508,2.2584224l-3.2260704,2.9937358l-15.7796669,7.046073  c-4.1935577,1.8719654-6.0528574,19.3440647-8.202198,53.0799713C10.0801449,78.0129929,9.6963787,84.043045,9.337945,85.8149567  c-0.0671282,0.3343735,0.0050659,0.6814041,0.2013817,0.9613113c0.1950493,0.2786407,0.4964886,0.466095,0.8333921,0.5167542  l14.5729599,2.2050705c0.3432369,0.0468597,0.6953373-0.0430603,0.9676476-0.2621765  c0.2710419-0.2178497,0.4382267-0.5408173,0.4610252-0.889122l0.4458256-6.9318466l0.0076008,12.341301  c0,0.68647,0.5572815,1.2437515,1.2450199,1.2437515h43.8531342c0.330574,0,0.6472092-0.1317215,0.8802567-0.364769  c0.234314-0.234314,0.364769-0.5509491,0.364769-0.880249l-0.0063324-12.3982925l0.4597549,6.9913712  c0.0227966,0.3483047,0.1899872,0.6700058,0.4622955,0.889122c0.2710419,0.2178497,0.6206055,0.3077698,0.9663773,0.26091  l14.5742264-2.2050705c0.3369064-0.0506592,0.6383438-0.2381134,0.8333893-0.5167542  c0.1963196-0.2799072,0.2685089-0.6269379,0.2013855-0.9613113C90.3036194,84.0455856,89.9198532,78.0180588,89.4335022,70.3858032z   M63.4754906,11.8178558l-5.7248192,9.3661594l-5.3030586-5.9844627l8.3617859-5.8552752L63.4754906,11.8178558z   M46.9064445,92.5099564V19.6829929l3.0929222-3.4908581l3.0941887,3.4916496v72.8261719H46.9064445z M45.3194542,7.4900436  c0.6814041,0,1.3982735,0.0088658,2.1417389,0.0189981c1.6325874,0.0227981,3.441227,0.0227981,5.0763474,0  c0.7434654-0.0101323,1.4603348-0.0189981,2.1417389-0.0189981c1.9358482,0,3.1944847,0.1032238,4.0214653,0.2910695  l-8.7013779,6.092833l-8.7005882-6.0930705C42.1257591,7.5931091,43.3842392,7.4900436,45.3194542,7.4900436z M39.1906013,9.3442774  l8.3605194,5.8552752l-5.3017921,5.9844627l-5.7260857-9.3661594L39.1906013,9.3442774z M23.9767666,86.8332672  l-12.0018587-1.8162384c0.181592-1.4917603,0.3654804-3.7926941,0.5668621-6.6893768L24.41436,80.0321121L23.9767666,86.8332672z   M29.2874222,43.0345917c0-0.6712723-0.5332184-1.2222252-1.2057571-1.2424889  c-0.0126667-0.0012665-0.026598-0.0012665-0.0405312-0.0012665c-0.6535397,0-1.1994247,0.5078888-1.2412205,1.1652298  l-2.2652302,35.2059822l-11.8656244-1.7034378c0.1200056-1.800087,0.2463446-3.7705307,0.3836861-5.922081  c0.9397821-14.7414169,3.1397848-49.2651215,6.7329969-50.9635696l14.5792942-6.5102406l6.6367378,10.8570518  c0.2064476,0.3369026,0.5598145,0.5560169,0.952446,0.5902138c0.0367317,0.0037994,0.0734596,0.0050659,0.1101913,0.0050659  c0.3546333,0,0.6940727-0.1519871,0.9321823-0.4192295l2.0429497-2.3057594v70.7198944h-15.72299L29.2874222,43.0345917z   M73.1443558,43.0700531c-0.0443268-0.6712723-0.616806-1.2234879-1.2830124-1.162693  c-0.6725388,0.0215302-1.2044983,0.5724792-1.2044983,1.2437553l0.0240707,49.3588409h-15.720459V21.7904568l2.0429497,2.3053646  c0.2381096,0.2672424,0.577549,0.4192295,0.9321823,0.4192295c0.0367317,0,0.0734596-0.0012665,0.1101913-0.0050659  c0.3926315-0.0341969,0.7459984-0.2533112,0.952446-0.5902138l6.6358681-10.8574476l14.580162,6.5106363  c3.5919495,1.7022476,5.7932129,36.2284851,6.7342682,50.9711685c0.1367874,2.147438,0.2626495,4.1143188,0.3823395,5.9117126  l-11.8801117,1.7057343L73.1443558,43.0700531z M76.0206985,86.8332672l-0.4470901-6.8019485l11.8843842-1.7063599  c0.2013855,2.8985062,0.3854294,5.2006226,0.5671005,6.69207L76.0206985,86.8332672z"/></svg>