<svg xmlns="http://www.w3.org/2000/svg" xmlns:xlink="http://www.w3.org/1999/xlink" version="1.1" x="0px" y="0px" viewBox="0 0 48 60" enable-background="new 0 0 48 48" xml:space="preserve"><g><g><path fill="#000000" d="M21.8,24.9c-0.7-1.3-1.7-2.5-2.9-3.5c-0.3-0.2-0.6-0.4-0.9-0.7c-0.7-0.5-1.4-1-2.1-1.7    c-1-1-1.6-2.2-2.2-3.2c-0.2-0.4-0.4-0.8-0.7-1.3c-1,7.2-1.3,14.6-2,21.8c0,0.3-0.1,0.5-0.3,0.7c-0.2,0.2-0.5,0.2-0.7,0.4    c-0.2,0.2-0.2,0.5-0.2,0.8c0,1.5,0,3,0,4.5c0,0.2,0,0.3,0.1,0.5c0.1,0.1,0.3,0.1,0.5,0.1c1.1,0,2.2,0,3.3-0.2    c0.2,0,0.5-0.2,0.7-0.3c-0.1,1.2-0.1,2.5,0.9,3.3c0.4,0.3,0.9,0.4,1.3,0.6c2.3,0.7,4.5,0.9,6.8,0.9v-21    C22.9,26.3,22.3,25.8,21.8,24.9z M17.1,36.2c-0.1,0.5-0.5,0.9-1,0.9c-0.1,0-0.1,0-0.2,0c-0.6-0.1-1-0.6-0.9-1.2l1.5-8.7    c0.1-0.6,0.6-1,1.2-0.9c0.6,0.1,1,0.6,0.9,1.2L17.1,36.2z M21,40.2c-0.6,0-1-0.5-1-1c0-0.6,0.5-1,1-1c0.6,0,1,0.5,1,1    C22,39.7,21.6,40.2,21,40.2z M21,32.5c-0.6,0-1-0.5-1-1c0-0.6,0.5-1,1-1c0.6,0,1,0.5,1,1C22,32,21.6,32.5,21,32.5z"/><path fill="#000000" d="M38,37.4c-0.2-0.2-0.5-0.2-0.7-0.4c-0.2-0.2-0.2-0.5-0.3-0.7c-0.7-7-1.1-14-1.9-21    c-0.4,0.9-0.8,1.8-1.3,2.7c-1.1,1.7-2.6,3-4,4.3c-1.1,1-2.2,2-3,3.1c-0.2,0.2-0.5,0.7-1.2,1v21c2-0.1,3.9-0.3,5.9-0.9    c0.5-0.1,0.9-0.3,1.3-0.6c1-0.7,1-2.1,0.9-3.3c0.1,0.2,0.4,0.3,0.7,0.3c1.1,0.2,2.2,0.3,3.3,0.2c0.2,0,0.3,0,0.5-0.1    c0.1-0.1,0.1-0.3,0.1-0.5c0-1.5,0-3,0-4.5C38.2,37.9,38.2,37.6,38,37.4z M32.1,37c-0.1,0-0.1,0-0.2,0c-0.5,0-0.9-0.4-1-0.9    l-1.5-8.7c-0.1-0.6,0.3-1.1,0.9-1.2c0.6-0.1,1.1,0.3,1.2,0.9l1.5,8.7C33,36.4,32.7,36.9,32.1,37z"/></g><path fill="#000000" d="M33.8,4.6c-0.7-1-1.8-1.6-2.9-2.1c-1.5-0.7-3.1-1.2-4.7-1.6C24.7,0.5,23,0.2,21.6,1   c-1.1,0.6-1.8,1.6-2.7,2.4c-1.8,1.5-4.4,2.3-5.2,4.4c-0.5,1.3-0.2,2.8,0.4,4.1c0.4,1,0.9,2,1.4,3c0.5,1,1.1,2,1.9,2.8   c0.8,0.9,1.9,1.5,2.8,2.2c1.4,1.1,2.6,2.5,3.4,4.1c0.2,0.4,0.5,0.8,0.9,0.7c0.2-0.1,0.3-0.2,0.5-0.4c2-2.7,5.2-4.5,7-7.3   c1.4-2.2,2-4.9,2.3-7.5C34.6,7.8,34.7,6,33.8,4.6z M25.4,19.6c-0.1,0.3-0.4,0.2-0.8,0c-0.9-0.5-1.5-1.5-1.5-2.5   c-0.1-4.1,0.2-6.9,0-11.4c0-0.2,0-0.4,0.1-0.6c0.1-0.2,0.3-0.3,0.5-0.4c0.5-0.3,1.2-0.6,1.7-0.3c0.5,0.3,0.6,1,0.6,1.6   c0.1,1.3,0.1,2.6,0.2,3.9C26.3,13.2,26.5,16.5,25.4,19.6z"/></g></svg>