<svg xmlns="http://www.w3.org/2000/svg" xmlns:xlink="http://www.w3.org/1999/xlink" version="1.1" x="0px" y="0px" viewBox="0 0 100 125" enable-background="new 0 0 100 100" xml:space="preserve"><path fill="#000000" d="M98.794,74.816c-0.233-0.932-1.403-6.541-2.337-11.916C93.935,48.383,87.389,34.867,81.6,21.438  c-0.979-2.275-2.247-4.622-2.902-7.019c-0.349-1.284-0.349-6.303-1.166-6.777c-2.867-1.654-9.128,1.921-12.065,2.453  c-5.262,0.952-10.352,1.429-15.435,1.45c-5.088-0.021-10.178-0.498-15.443-1.45c-2.935-0.532-9.195-4.106-12.063-2.453  c-0.816,0.474-0.816,5.493-1.166,6.777c-0.655,2.397-1.924,4.744-2.901,7.019C12.667,34.867,6.122,48.383,3.6,62.9  c-0.932,5.375-2.103,10.984-2.338,11.916c-0.232,0.938-1.751,4.09-0.114,4.439c0.727,0.158,30.909,10.938,39,13.492  c2.497,0.789,7.559-9.26,9.883-14.242c2.32,4.982,7.384,15.031,9.878,14.242c8.091-2.555,38.271-13.334,39-13.492  C100.547,78.906,99.03,75.754,98.794,74.816z M40.479,87.449c-0.162,0.455-0.595,0.744-1.054,0.744  c-0.124,0-0.251-0.021-0.373-0.064L5.63,76.244c-0.584-0.205-0.884-0.842-0.677-1.422c0.202-0.576,0.842-0.883,1.42-0.676  l33.428,11.877C40.381,86.23,40.678,86.869,40.479,87.449z M57.223,20.097c-0.09,0.015-0.182,0.021-0.271,0.021  c-0.844,0-1.588-0.616-1.721-1.478c-0.149-0.953,0.506-1.845,1.46-1.997l17.206-2.676c0.953-0.149,1.846,0.506,1.997,1.457  c0.148,0.956-0.507,1.848-1.459,1.997L57.223,20.097z M94.427,76.244L61.005,88.129c-0.122,0.043-0.249,0.064-0.373,0.064  c-0.458,0-0.893-0.289-1.054-0.744c-0.2-0.58,0.097-1.219,0.678-1.426l33.427-11.877c0.58-0.207,1.221,0.1,1.421,0.676  C95.31,75.402,95.012,76.039,94.427,76.244z"/></svg>