<svg xmlns="http://www.w3.org/2000/svg" xmlns:xlink="http://www.w3.org/1999/xlink" version="1.1" x="0px" y="0px" viewBox="0 0 100 125" enable-background="new 0 0 100 100" xml:space="preserve"><path d="M95.2492676,44.0961647l-7.0456924-24.6287899c-0.8153458-2.8491535-2.0979691-5.1236935-4.823616-6.3028498  l-14.4040222-6.23241c-0.5733261,10.5259647-8.8520966,18.9095821-18.9759789,18.9095821  c-10.1237984,0-18.4024849-8.3835316-18.9759808-18.9094105L16.6201305,13.164525  c-2.7277985,1.1804457-4.006464,3.4460421-4.823616,6.3032808L4.7507358,44.0961647l19.0293884,3.1955032l2.3626995-7.3977203  L26.176796,95c14.8167686,0,32.8292961,0,47.6460648,0l-0.0263214-54.9813423l2.4229889,7.2730103L95.2492676,44.0961647z"/><path d="M49.999958,24.4903545c9.5620842,0,17.3572426-8.083107,17.6523323-18.1309605l-2.2781525-0.9857259  c-0.0282135-0.0262322-0.0423203-0.061409-0.0731964-0.085577c-0.588974-0.4609976-1.4380341-0.357789-1.8990326,0.2311869  c-1.777935,2.269208-7.2878876,3.8544893-13.4019508,3.8544893S38.3759422,7.7884865,36.5980034,5.5192785  c-0.4596214-0.5889759-1.3114319-0.6921844-1.8990326-0.2311869c-0.0309639,0.0242538-0.0452385,0.0596027-0.0735359,0.0859208  l-2.2778091,0.9855542C32.6427994,16.4074192,40.4378738,24.4903545,49.999958,24.4903545z M49.999958,12.0792027  c5.6172867,0,10.5942535-1.2023773,13.5873833-3.1724529C57.7205467,23.7726269,42.280571,23.7726269,36.4134331,8.9073515  C39.4066467,10.8771696,44.3832703,12.0792027,49.999958,12.0792027z"/></svg>