<svg xmlns="http://www.w3.org/2000/svg" xmlns:xlink="http://www.w3.org/1999/xlink" version="1.1" x="0px" y="0px" viewBox="0 0 100 125" enable-background="new 0 0 100 100" xml:space="preserve"><g><path d="M47.953,1.151v29.978h2.295v45.811c-2.969,0.145-5.615,0.828-7.926,1.885c0.019-0.009,0.035-0.018,0.053-0.025   l-8.709-8.708l8.035-8.035l-8.035-8.036l8.035-8.035l-8.035-8.034l6.821-6.821h5.169V1.151H20.403v29.978H22.7v45.811   C11.744,77.471,5.025,85.166,4.39,92.979H4.334v1.215v1.215V100h27.548h59.822v-4.591v-64.28H94V1.151H47.953z M64.6,31.129   l-5.104,5.104l-5.101-5.104H64.6z M59.496,71.809L64.6,76.91H54.396L59.496,71.809z M52.678,75.191V64.988l5.103,5.103   L52.678,75.191z M53.181,62.056l6.315-6.317l6.318,6.317l-6.318,6.317L53.181,62.056z M52.678,59.123V48.919l5.103,5.101   L52.678,59.123z M53.181,45.984l6.315-6.316l6.318,6.316l-6.318,6.318L53.181,45.984z M52.678,43.052V32.848l5.103,5.103   L52.678,43.052z M37.051,76.91H26.848l5.101-5.102L37.051,76.91z M25.13,75.191V64.988l5.101,5.103L25.13,75.191z M38.266,62.056   l-6.317,6.317l-6.315-6.317l6.315-6.317L38.266,62.056z M25.13,59.123V48.919l5.101,5.101L25.13,59.123z M38.266,45.984   l-6.317,6.318l-6.315-6.318l6.315-6.316L38.266,45.984z M25.13,43.052V32.848l5.101,5.103L25.13,43.052z M37.051,31.129   l-5.103,5.104l-5.103-5.104H37.051z M31.882,97.57H6.764v-2.161h25.118V97.57z M31.882,92.979H6.822   c0.666-6.901,6.951-13.639,17.091-13.64h17.33c0.001,0,0.001-0.001,0.002-0.002c-5.569,2.975-8.871,8.279-9.308,13.642H31.882z    M89.275,97.57H34.312v-2.161h54.964V97.57z M89.275,92.979H34.372c0.666-6.901,6.95-13.639,17.089-13.64h19.005l-9.25-9.249   l8.034-8.035l-8.034-8.036l8.034-8.035l-8.034-8.034l6.819-6.821h21.24V92.979z"/></g></svg>