<svg xmlns="http://www.w3.org/2000/svg" xmlns:xlink="http://www.w3.org/1999/xlink" version="1.1" x="0px" y="0px" viewBox="0 0 100 125" enable-background="new 0 0 100 100" xml:space="preserve"><line fill="none" x1="2" y1="-8141" x2="8" y2="-8141"/><line fill="none" x1="8" y1="8242" x2="2" y2="8242"/><path d="M95.304,31.688L75.842,16.813c-0.041-0.031-0.088-0.057-0.137-0.074l-13.97-4.95c-0.009-0.003-0.019-0.001-0.029-0.004  c-0.033-0.009-0.065-0.011-0.1-0.014c-0.032-0.002-0.062-0.007-0.094-0.003c-0.032,0.004-0.063,0.016-0.095,0.026  c-0.025,0.008-0.052,0.009-0.076,0.02c-0.007,0.004-0.012,0.011-0.019,0.015c-0.007,0.004-0.015,0.004-0.022,0.008  c-0.044,0.027-4.479,2.765-11.302,2.765c-6.824,0-11.257-2.737-11.301-2.765c-0.007-0.004-0.015-0.004-0.022-0.008  c-0.007-0.004-0.012-0.011-0.019-0.015c-0.024-0.012-0.052-0.013-0.077-0.021c-0.03-0.009-0.058-0.021-0.089-0.025  c-0.035-0.004-0.068,0-0.103,0.003c-0.031,0.003-0.061,0.005-0.091,0.013c-0.011,0.003-0.022,0.001-0.032,0.005l-2.79,0.989  c-0.008,0.002-0.016,0-0.024,0.003c-0.012,0.004-0.019,0.012-0.03,0.017l-11.125,3.942c-0.049,0.017-0.095,0.042-0.137,0.074  L4.696,31.688C4.573,31.783,4.5,31.93,4.5,32.086c0,0.23,0.096,5.754,8.437,14.843c0.147,0.161,0.382,0.208,0.58,0.115l10.446-4.875  v45.455c0,0.263,0.203,0.48,0.465,0.499c0.16,0.011,16.118,1.116,25.572,1.116s25.413-1.105,25.573-1.116  c0.262-0.019,0.465-0.236,0.465-0.499V42.169l10.445,4.875c0.2,0.092,0.433,0.045,0.58-0.115C95.404,37.84,95.5,32.316,95.5,32.086  C95.5,31.93,95.428,31.783,95.304,31.688z M60.621,13.328c-1.068,2.435-4.117,7.677-10.621,7.677c-6.511,0-9.557-5.243-10.622-7.677  c1.809,0.861,5.549,2.275,10.622,2.275C55.072,15.603,58.812,14.188,60.621,13.328z M50,88.239c-8.512,0-22.336-0.9-25.038-1.082  V41.504L37.182,17.68C39.56,21.345,43.72,25.004,50,25.004c6.276,0,10.437-3.661,12.817-7.326l12.221,23.827v45.652  C72.336,87.339,58.512,88.239,50,88.239z"/></svg>