<svg xmlns="http://www.w3.org/2000/svg" xmlns:xlink="http://www.w3.org/1999/xlink" version="1.1" x="0px" y="0px" viewBox="25.5 251 100 100" enable-background="new 25.5 251 100 100" xml:space="preserve"><g><path d="M70.3,316.8c-0.2-1.3-0.9-2.3-1.9-3c-0.6-1.2-1.3-2.6-0.8-3c1.3-1.2,0.9-2.3,1.5-3.1c0.4-0.5,0.7-2,0.9-4.3l-23.7-2.5   c-0.4,0-0.8-0.2-1.1-0.5c-0.5-0.4-0.8-1.1-0.8-1.9c0.1-1.2,1.2-2,2.4-1.9l23.6,2.5c0.7-10.1,0.8-25.5,1-27.4   c0.5-4.6-1.3-9.3-5.1-12.4c-6.1-5.1-15.1-4.2-20.2,1.9c-2.2,2.6-3.3,5.8-3.3,9c0,3.8-0.7,14.3,1.8,18.3c-2.5-3.1-10.3-12.2-12.4-11   c-2.5,1.4-2.8,1.8-0.2,9.8c2.6,8,8.6,27.3,9.9,28.1c0.6,0.4,0.4,0.8,0,1.2c-0.4,0.2-0.7,0.4-1,0.7c0,0,0,0,0,0l0,0   c-1,0.9-1.6,2.2-1.4,3.7l2.9,21.3c0.3,2.3,2.5,4,4.8,3.7l22.2-3c2.3-0.3,4-2.5,3.7-4.8L70.3,316.8z"/><path d="M109.1,315.4c1.3-0.8,7.3-20.1,9.9-28.1c2.6-8,2.4-8.4-0.2-9.8c-2.1-1.2-9.9,7.9-12.4,11c2.5-4,1.9-14.5,1.8-18.3   c0-3.2-1.1-6.3-3.3-9c-5.1-6.1-14.1-6.9-20.2-1.9c-3.8,3.2-5.6,7.9-5.1,12.4c0.2,1.9,0.3,17.3,1,27.4l23.6-2.5   c1.2-0.1,2.2,0.7,2.4,1.9c0.1,0.7-0.2,1.4-0.8,1.9c-0.3,0.3-0.7,0.4-1.1,0.5L81,303.5c0.3,2.2,0.6,3.8,0.9,4.3   c0.6,0.8,0.2,1.9,1.5,3.1c0.5,0.4-0.2,1.8-0.8,3c-1,0.7-1.8,1.7-1.9,3l-2.9,21.3c-0.3,2.3,1.3,4.5,3.7,4.8l22.2,3   c2.3,0.3,4.5-1.3,4.8-3.7l2.9-21.3c0.2-1.4-0.4-2.7-1.4-3.7l0,0c0,0,0,0,0,0c-0.3-0.3-0.6-0.5-1-0.7   C108.6,316.2,108.4,315.8,109.1,315.4z"/></g></svg>