<svg xmlns="http://www.w3.org/2000/svg" xmlns:xlink="http://www.w3.org/1999/xlink" version="1.1" x="0px" y="0px" viewBox="0 0 100 125" enable-background="new 0 0 100 100" xml:space="preserve"><g><path d="M48.069,82.45l-3.275-12.936c1.235-1.076,2.215-2.932,2.317-5.317c0.143-3.301,0.095-22.039,0.095-22.039   s0.397-6.351-3.887-6.413c-4.283-0.062-4.021,3.934-4.163,5.658c-0.173,2.115,0.988,11.195-0.002,11.43   c-0.99,0.232-3.826-10.697-4.369-15.129s-2.359-13.448-2.359-13.448s-0.395-5.038-4.96-4.255c-3.758,0.644-3.01,4.382-2.808,5.266   c0.062,0.275,2.993,15.853,3.127,16.385c0.133,0.532-0.078,2.115-0.894,0.203c-0.815-1.914-4.131-19.69-4.131-19.69   s-0.784-4.531-5.923-2.749c0,0-2.984,1.06-1.871,5.516c1.115,4.457,5.191,19.03,5.437,19.715c0.246,0.685-0.185,2.392-1.149,0.146   c-0.964-2.247-5.424-16.684-5.424-16.684s-1.323-4.834-5.188-3.225c-3.021,1.258-2.73,3.656-2.004,5.731   c0.729,2.07,5.449,15.663,5.751,16.228c0.302,0.563,0.461,2.571-0.91,0.309c-1.372-2.266-5.896-12.827-5.896-12.827   S4.117,32.3,1.396,33.938c0,0-2.147,1.499-1.051,4.486c1.095,2.985,4.386,9.418,7.222,17.086   c5.422,14.657,8.497,19.101,11.858,19.78l3.291,13.471c0.429,1.738,2.203,2.82,3.944,2.408l19.074-4.702   C47.459,85.992,48.508,84.185,48.069,82.45z M27.393,88.683c-0.105,0.027-0.213,0.037-0.315,0.033   c-0.464-0.02-0.883-0.342-1.001-0.815l-2.947-11.552c-0.149-0.58,0.202-1.17,0.781-1.317c0.586-0.153,1.17,0.202,1.319,0.781   l2.944,11.552C28.322,87.944,27.973,88.535,27.393,88.683z M31.594,87.611c-0.105,0.027-0.213,0.037-0.314,0.033   c-0.466-0.02-0.883-0.34-1.004-0.813l-2.946-11.554c-0.148-0.581,0.202-1.17,0.781-1.317c0.585-0.153,1.17,0.203,1.317,0.782   l2.947,11.552C32.524,86.874,32.173,87.464,31.594,87.611z M35.792,86.54c-0.104,0.027-0.21,0.039-0.313,0.034   c-0.466-0.021-0.882-0.342-1.003-0.816L31.53,74.205c-0.148-0.579,0.203-1.168,0.783-1.317c0.58-0.151,1.169,0.204,1.316,0.782   l2.944,11.554C36.724,85.804,36.373,86.393,35.792,86.54z M39.996,85.471c-0.107,0.025-0.214,0.036-0.316,0.031   c-0.465-0.02-0.882-0.339-1.003-0.813l-2.945-11.552c-0.149-0.581,0.201-1.171,0.781-1.318c0.586-0.149,1.169,0.201,1.317,0.781   l2.946,11.552C40.926,84.731,40.575,85.322,39.996,85.471z M44.195,84.397c-0.104,0.027-0.211,0.038-0.314,0.033   c-0.465-0.02-0.883-0.34-1.004-0.813l-2.946-11.553c-0.148-0.579,0.202-1.171,0.782-1.318c0.583-0.153,1.171,0.203,1.318,0.782   l2.946,11.552C45.127,83.661,44.775,84.25,44.195,84.397z"/><path d="M54.267,86.468l19.075,4.702c1.74,0.412,3.516-0.67,3.943-2.408l3.291-13.471c3.361-0.68,6.438-5.123,11.858-19.78   c2.836-7.668,6.127-14.101,7.222-17.086c1.097-2.987-1.051-4.486-1.051-4.486c-2.722-1.639-4.188,0.385-4.188,0.385   s-4.523,10.562-5.896,12.827c-1.37,2.263-1.212,0.255-0.91-0.309c0.302-0.564,5.022-14.157,5.751-16.228   c0.727-2.075,1.018-4.474-2.003-5.731c-3.865-1.609-5.188,3.225-5.188,3.225s-4.46,14.437-5.424,16.684   c-0.965,2.246-1.396,0.539-1.148-0.146c0.245-0.685,4.321-15.258,5.437-19.715c1.113-4.456-1.872-5.516-1.872-5.516   c-5.138-1.782-5.922,2.749-5.922,2.749s-3.315,17.776-4.132,19.69c-0.815,1.912-1.025,0.329-0.893-0.203s3.063-16.109,3.126-16.385   c0.202-0.884,0.952-4.622-2.808-5.266c-4.565-0.783-4.959,4.255-4.959,4.255s-1.815,9.017-2.359,13.448s-3.38,15.361-4.37,15.129   c-0.989-0.234,0.171-9.314-0.001-11.43c-0.143-1.725,0.121-5.721-4.164-5.658c-4.282,0.062-3.887,6.413-3.887,6.413   s-0.048,18.738,0.095,22.039c0.103,2.386,1.083,4.241,2.318,5.317L51.933,82.45C51.493,84.185,52.543,85.992,54.267,86.468z    M71.827,87.364l2.945-11.552c0.149-0.579,0.733-0.935,1.318-0.781c0.579,0.147,0.932,0.737,0.782,1.317L73.926,87.9   c-0.119,0.474-0.537,0.796-1.002,0.815c-0.103,0.004-0.21-0.006-0.315-0.033C72.028,88.535,71.679,87.944,71.827,87.364z    M67.626,86.294l2.947-11.552c0.147-0.579,0.732-0.936,1.318-0.782c0.578,0.147,0.929,0.736,0.78,1.317l-2.946,11.554   c-0.121,0.474-0.538,0.794-1.003,0.813c-0.103,0.004-0.209-0.006-0.315-0.033C67.828,87.464,67.477,86.874,67.626,86.294z    M63.427,85.224l2.944-11.554c0.147-0.578,0.736-0.934,1.316-0.782c0.58,0.149,0.932,0.738,0.783,1.317l-2.944,11.553   c-0.122,0.475-0.538,0.796-1.004,0.816c-0.104,0.005-0.209-0.007-0.312-0.034C63.628,86.393,63.277,85.804,63.427,85.224z    M59.225,84.151L62.171,72.6c0.148-0.58,0.731-0.931,1.317-0.781c0.581,0.147,0.931,0.737,0.782,1.318l-2.946,11.552   c-0.12,0.475-0.538,0.794-1.003,0.813c-0.103,0.005-0.209-0.006-0.315-0.031C59.427,85.322,59.075,84.731,59.225,84.151z    M55.023,83.08l2.946-11.552c0.147-0.579,0.735-0.936,1.319-0.782c0.58,0.147,0.93,0.739,0.781,1.318l-2.946,11.553   c-0.121,0.474-0.539,0.794-1.004,0.813c-0.103,0.005-0.209-0.006-0.314-0.033C55.227,84.25,54.874,83.661,55.023,83.08z"/></g></svg>