<svg xmlns="http://www.w3.org/2000/svg" xmlns:xlink="http://www.w3.org/1999/xlink" version="1.1" x="0px" y="0px" viewBox="0 0 100 125" enable-background="new 0 0 100 100" xml:space="preserve"><g><polygon fill="none" stroke="#000000" stroke-width="2" stroke-miterlimit="10" points="32.01,2.334 17.045,87.923 32.51,92.628    50.239,36.102 67.512,92.628 83.126,87.923 71.007,2.334  "/><rect x="33.959" y="2.578" transform="matrix(0.993 0.1178 -0.1178 0.993 1.0155 -4.1316)" fill="none" stroke="#000000" stroke-width="2" stroke-miterlimit="10" width="3.01" height="7.897"/><rect x="66.198" y="2.609" transform="matrix(0.9901 -0.1406 0.1406 0.9901 -0.2493 9.5872)" fill="none" stroke="#000000" stroke-width="2" stroke-miterlimit="10" width="3.006" height="7.897"/><line fill="none" stroke="#000000" stroke-width="2" stroke-miterlimit="10" x1="30.541" y1="8.823" x2="33.676" y2="8.823"/><line fill="none" stroke="#000000" stroke-width="2" stroke-miterlimit="10" x1="37" y1="8.823" x2="50.034" y2="8.823"/><line fill="none" stroke="#000000" stroke-width="2" stroke-miterlimit="10" x1="69.543" y1="8.823" x2="72.361" y2="8.823"/><rect x="66.313" y="90.213" transform="matrix(0.9537 -0.3009 0.3009 0.9537 -24.2218 27.2167)" fill="none" stroke="#000000" stroke-width="2" stroke-miterlimit="10" width="19.891" height="4.081"/><rect x="13.907" y="90.213" transform="matrix(-0.9537 -0.3008 0.3008 -0.9537 18.8497 187.4094)" fill="none" stroke="#000000" stroke-width="2" stroke-miterlimit="10" width="19.893" height="4.081"/><line fill="none" stroke="#000000" stroke-width="2" stroke-miterlimit="10" x1="50.198" y1="36.638" x2="50.198" y2="2.436"/><path fill="none" stroke="#000000" stroke-width="2" stroke-miterlimit="10" d="M49.973,26.254c0,0,5.291,0.896,5.888-17.431H66"/><line fill="none" stroke="#000000" stroke-width="2" stroke-miterlimit="10" x1="55.861" y1="8.823" x2="55.861" y2="2.436"/><circle cx="52.76" cy="5.645" r="1.017"/><path fill="none" stroke="#000000" stroke-width="2" stroke-miterlimit="10" d="M50.034,8.823"/><path fill="none" stroke="#000000" stroke-width="2" stroke-miterlimit="10" d="M62.584,8.805c0,0-1.009,14.313,11.038,11.997"/><path fill="none" stroke="#000000" stroke-width="2" stroke-miterlimit="10" d="M40.2,9.028c0,0,1.01,14.313-11.037,11.997"/><line fill="none" stroke="#000000" stroke-width="2" stroke-linecap="round" stroke-miterlimit="10" stroke-dasharray="1,5" x1="48.283" y1="30.243" x2="40" y2="66.547"/></g></svg>