<svg xmlns="http://www.w3.org/2000/svg" xmlns:xlink="http://www.w3.org/1999/xlink" version="1.1" x="0px" y="0px" viewBox="0 0 48 60" enable-background="new 0 0 48 48" xml:space="preserve"><g><path fill="#000000" d="M33.2,11.3c-0.1-0.2-0.3-0.3-0.4-0.5c-0.2-0.3-0.3-0.6-0.4-1c-0.1-0.5-0.2-1.1-0.4-1.6   c-0.1-0.5-0.2-1-0.7-1.2c-0.2-0.1-0.5-0.2-0.8-0.3c-0.2-3.5-3.3-6.2-7-6.2c-3.8,0-6.9,2.9-7,6.5c-0.2,0.2-0.5,0.4-0.8,0.4   c-0.5,0.7-0.9,1.3-1.1,2.1c-0.2,0.8,0,1.5,0,2.3c0,0.3-0.1,0.7,0.1,1c0.2,0.4,0.7,0.7,0.8,1.1c0.1,0.3,0.1,0.7,0.4,0.9   c0.2,0.1,0.4,0.2,0.6,0.3c0.3,0.2,0.3,0.6,0.5,0.9c0.4,0.8,1.7,0.8,2.8,0.8c0.1-0.1,0.3-0.2,0.4-0.3c-0.4-0.5-0.6-1.2-0.7-1.8   c0-0.2,0-0.4-0.1-0.6c-0.1-0.2-0.2-0.3-0.4-0.4c-0.6-0.6-1-1.3-0.9-2s0.8-1.4,1.7-1.5c0-0.4,0-0.8,0.3-1.2c0.4-0.5,1.1-0.7,1.9-0.8   c1.1-0.1,2.2-0.1,3.3-0.1c0.7,0,1.4,0.1,1.9,0.5c0.4,0.3,0.6,0.8,1.1,1c0.2,0.1,0.4,0.2,0.5,0.3s0.1,0.3,0.2,0.5   c0,0.4,0.1,0.8,0,1.2c-0.1,0.5-0.3,1-0.6,1.5c-0.2,0.5-0.5,1-0.7,1.4c-0.1,0.1-0.1,0.2-0.2,0.2s-0.2,0-0.3,0   c-0.2,0.1,0,0.3,0.1,0.4c0.3,0.3,0.3,0.7,0.5,1.1c0.2,0.4,0.7,0.8,1.1,0.6c0.7,0.2,1.5-0.2,1.7-0.7c0.1-0.1,0.1-0.2,0.2-0.3   s0.2-0.1,0.3-0.2c0.3-0.2,0.7-0.4,0.8-0.7c0.1-0.2,0-0.4,0.1-0.6c0.1-0.2,0.3-0.3,0.5-0.5c0.4-0.5,0-1.1,0.2-1.7   C33,12,33.4,11.6,33.2,11.3z M26.6,4.9c-0.6-0.1-1.2-0.1-1.8,0c-0.3,0.1-0.6,0.2-0.9,0.2c-0.8,0.1-1.5-0.5-2.2-0.2   C21.5,5,21.3,5.1,21,5.2c-0.5,0.1-1-0.3-1.4-0.1c-0.2,0.1-0.3,0.2-0.4,0.2l0,0c0.8-1.6,2.5-2.7,4.5-2.7s3.8,1.1,4.5,2.8   C27.7,5.1,27.1,5,26.6,4.9z"/><g><path fill="#000000" d="M11,17.2L1,25.5l3,6.6l6.4-3.4C11.5,26,12.2,22.1,11,17.2z"/><path fill="#000000" d="M19.7,18.9c-0.1,0-0.3,0-0.4,0c-2,0-3.4-0.6-4.1-1.9c-0.1-0.1-0.1-0.3-0.2-0.4c-0.1-0.1-0.3-0.2-0.4-0.3    c-0.3-0.2-0.4-0.5-0.6-0.7l-1.3,0.5c1.8,6.7,0.4,11.7-1.2,14.8v16.5h10.9V27.6C22.5,23.1,20.8,20.3,19.7,18.9z"/></g><g><path fill="#000000" d="M37.2,17.3c-1.2,4.9-0.4,8.8,0.6,11.4L44,32l3.1-6.6L37.2,17.3z"/><path fill="#000000" d="M35.3,16.2L34,15.7c-0.3,0.9-1,1.5-1.5,1.8c-0.6,1.1-1.8,1.7-3.1,1.7l0,0c-0.1,0-0.2,0-0.3,0    c-0.1,0-0.2,0-0.3,0c-0.4,0-0.8-0.1-1.1-0.3c-1.3,1.3-3.2,4.1-3.1,8.6v20h11.6v-17C34.8,27.4,33.6,22.6,35.3,16.2z"/></g></g></svg>