<svg xmlns="http://www.w3.org/2000/svg" xmlns:xlink="http://www.w3.org/1999/xlink" version="1.1" x="0px" y="0px" viewBox="0 0 100 125" enable-background="new 0 0 100 100" xml:space="preserve"><g><g><path d="M43.479,77.359c-0.032-0.086-2.932-7.935-5.313-15.039c1.714-2.934,3.562-6.744,4.054-8.382    c0.832-2.772,1.246-13.168-2.082-17.604c-0.533-0.71-1.233-1.5-2.033-2.323c0.67-7.052,0.404-14.619-3.808-22.639    c-1.683-3.203-4.221-4.828-7.544-4.828c-4.896,0-11.302,3.626-18.527,10.486C-3.999,28.639,6.604,50.258,6.712,50.475    c0.49,0.979,1.311,3.264,2.193,5.889c-0.245,1.361-0.31,2.576-0.086,3.533c0.534,2.288,1.41,4.782,3.445,6.98    c0.307,0.999,0.498,1.627,0.507,1.657c0.042,0.136,4.2,13.698,7.358,22.21c1.24,3.345,3.759,5.04,7.486,5.04    c4.847,0,10.854-2.938,14.441-4.694c6.251-3.052,3.475-9.17,1.983-12.456C43.823,78.158,43.625,77.724,43.479,77.359z     M40.139,48.532c-0.784,1.992-2.252,4.562-3.672,6.991c-0.557-4.711,0.097-9.533,0.827-14.898c0.109-0.803,0.216-1.64,0.325-2.466    C40.784,41.918,41.869,44.142,40.139,48.532z M7.833,49.914C7.729,49.705-2.286,28.741,9.091,17.941    C16.078,11.307,22.187,7.8,26.754,7.8c2.821,0,4.985,1.398,6.435,4.157c3.715,7.075,4.346,13.629,3.76,20.904    c-4.197-4.05-9.973-8.444-9.973-8.444l-1.234-2.079c0,0-0.583-0.14-1.408,0.692l0.561,1.525c0,0-8.315,10.671-10.532,16.492    c-1.435,3.765-3.732,8.802-4.918,13.019C8.799,52.217,8.223,50.692,7.833,49.914z M41.505,89.963    c-3.491,1.709-9.334,4.568-13.891,4.568c-3.193,0-5.257-1.382-6.31-4.223c-2.871-7.736-6.574-19.671-7.231-21.804    c1.508,1.129,3.447,2.124,5.971,2.895c0,0,1.526-1.939-0.554-3.187c0,0-4.079-0.898-6.57-3.458    c-0.499-1.604-1.126-3.602-1.782-5.624c0.974-6.305,8.642-17.214,10.848-20.716c2.355-3.743,4.432-6.792,4.432-6.792l1.805-0.555    c0,0,4.822,2.239,8.295,5.848c-0.152,1.202-0.309,2.388-0.466,3.54c-0.824,6.052-1.552,11.427-0.597,16.797    c-1.423,2.437-2.597,4.525-2.661,5.414c-0.136,1.941,1.11,3.879,2.499,3.466c0.428-0.129,1.173-1.08,2.023-2.41    c2.314,6.838,4.959,13.992,4.995,14.088c0.159,0.396,0.363,0.847,0.587,1.341C44.881,83.522,46.267,87.639,41.505,89.963z"/><path d="M93.318,17.032C86.094,10.172,79.687,6.546,74.79,6.546c-3.323,0-5.861,1.625-7.544,4.828    c-4.272,8.135-4.483,15.803-3.777,22.938c-0.68,0.715-1.278,1.399-1.746,2.023c-3.323,4.435-2.909,14.831-2.077,17.604    c0.472,1.573,2.193,5.153,3.849,8.033c-2.399,7.192-5.396,15.3-5.422,15.372c-0.152,0.38-0.35,0.813-0.565,1.288    c-1.492,3.287-4.271,9.405,1.979,12.458c3.59,1.756,9.599,4.694,14.443,4.694c0.001,0,0.001,0,0.001,0    c3.727,0,6.244-1.695,7.483-5.04c3.161-8.512,7.317-22.074,7.359-22.212c0.008-0.025,0.141-0.464,0.361-1.182    c2.369-2.309,3.339-5,3.91-7.454c0.256-1.097,0.139-2.526-0.203-4.137c0.804-2.367,1.538-4.382,1.99-5.285    C94.94,50.258,105.541,28.637,93.318,17.032z M63.971,38.488c0.095,0.714,0.187,1.444,0.281,2.141    c0.705,5.186,1.335,9.863,0.873,14.423c-1.332-2.287-2.667-4.657-3.402-6.521C60.045,44.27,61.017,42.053,63.971,38.488z     M80.238,90.309c-1.053,2.842-3.116,4.223-6.309,4.223c-4.555,0-10.4-2.859-13.893-4.568c-4.761-2.325-3.373-6.441-1.389-10.813    c0.225-0.493,0.429-0.944,0.594-1.355c0.03-0.083,2.76-7.471,5.1-14.408c0.937,1.502,1.772,2.607,2.236,2.746    c1.386,0.413,2.629-1.524,2.491-3.466c-0.065-0.94-1.375-3.223-2.908-5.842c0.843-5.228,0.134-10.476-0.667-16.365    c-0.144-1.054-0.286-2.143-0.426-3.239c3.484-3.785,8.574-6.153,8.574-6.153l1.803,0.555c0,0,2.08,3.048,4.434,6.792    c2.141,3.396,9.393,13.74,10.722,20.114c-0.785,2.407-1.546,4.831-2.109,6.651c-2.503,2.23-6.116,3.033-6.116,3.033    c-2.079,1.247-0.555,3.187-0.555,3.187c2.307-0.704,4.114-1.6,5.563-2.609C86.529,71.55,83,82.871,80.238,90.309z M92.277,53.56    c-1.222-4.108-3.397-8.899-4.774-12.513c-2.221-5.82-10.535-16.492-10.535-16.492l0.563-1.525    c-0.824-0.832-1.408-0.692-1.408-0.692l-1.23,2.079c0,0-6.057,4.604-10.273,8.731c-0.628-7.39-0.026-14.022,3.737-21.191    C69.805,9.198,71.97,7.8,74.79,7.8c4.569,0,10.678,3.507,17.665,10.141c11.373,10.798,1.36,31.764,1.256,31.973    C93.357,50.62,92.85,51.941,92.277,53.56z"/></g></g></svg>