<svg xmlns="http://www.w3.org/2000/svg" xmlns:xlink="http://www.w3.org/1999/xlink" version="1.1" x="0px" y="0px" viewBox="0 0 283.46 354.325" enable-background="new 0 0 283.46 283.46" xml:space="preserve"><g><path fill="#000000" d="M271.123,143.804c-0.018-0.236-0.061-0.476-0.135-0.713c-0.996-3.209-2.627-7.506-4.721-9.746   c-5.656-6.045-18.066-8.609-31.207-11.323c-5.652-1.167-11.496-2.374-16.621-3.85c-3.17-0.912-9.129-2.95-16.574-5.603l0.014-2.044   c0.008-1.167-0.631-2.243-1.658-2.798c-1.027-0.554-2.275-0.497-3.248,0.151l-2.859,1.903c-2.711-0.983-5.537-2.014-8.428-3.075   l0.055-1.631c0.043-1.276-0.688-2.453-1.852-2.981s-2.531-0.302-3.463,0.571l-1.613,1.511c-2.238-0.825-4.492-1.662-6.748-2.499   l0.082-2.015c0.051-1.26-0.652-2.429-1.789-2.974c-1.137-0.547-2.488-0.362-3.439,0.466l-2.098,1.825   c-2.551-0.952-5.072-1.895-7.537-2.818l0.01-2.312c0.004-1.238-0.717-2.365-1.844-2.882c-1.125-0.516-2.449-0.325-3.385,0.488   l-2.207,1.917c-2.549-0.958-4.988-1.876-7.279-2.741l0.076-2.602c0.033-1.181-0.592-2.282-1.625-2.853   c-1.033-0.573-2.299-0.521-3.281,0.133l-3.346,2.231c-5.782-2.19-9.583-3.638-10.178-3.864l-18.016-7.966   c-0.956-0.423-2.059-0.345-2.946,0.208c-1.719,1.071-16.828,10.782-17.798,21.737c-0.231,2.614,0.366,5.101,1.736,7.354   c-10.372,4.925-21.686,8.775-31.717,8.775c-7.877,0-13.767-1.391-17.896-3.335c1.524-2.376,2.461-5.703,1.491-10.002   c-2.151-9.525-14.829-14.445-22.612-13.65c-5.28,0.541-8.611,3.682-8.694,8.199c0,0.02,0,0.039,0,0.058   c0,3.707,2.305,9.229,8.657,9.245c3.256,0.01,5.078,0.199,6.243,0.686c-2.588,6.711-7.702,21.985-5.841,33.767   c1.683,10.655,5.512,18.822,7.39,22.35c-0.093,0.288-0.148,0.594-0.155,0.913c-0.007,0.293,0.03,0.575,0.099,0.845   c-0.329,1.48-0.601,3.527-0.601,6.247c0,1.167-0.022,2.219-0.044,3.237c-0.093,4.361-0.167,7.807,2.299,10.326   c2.836,2.896,7.909,3.386,18.207,3.386c2.968,0,8.918,0.064,17.153,0.153c17.171,0.184,41.967,0.45,66.489,0.45   c35.158,0,69.748-0.548,80.482-2.67c17.342-3.428,46.061-12.679,57.604-16.496c3.738-1.237,6.785-5.019,7.412-9.198   C274.216,151.244,273.548,146.484,271.123,143.804z M261.656,137.658c0.623,0.667,1.404,2.155,2.172,4.086   c-0.619,0.128-1.277,0.318-1.979,0.582c-2.359,0.885-6.621,2.083-11.555,3.47c-18.051,5.073-45.332,12.739-52.926,24.341   c-0.721,1.101-1.494,2.324-2.312,3.651c-1.826,0.183-3.633,0.341-5.422,0.479c2.971-4.938,5.93-9.451,9.316-12.777   c5.516-5.416,15.723-9.535,24.729-13.169c10.707-4.319,17.779-7.174,18.34-12.221c0.381-3.414-2.998-5.839-10.039-7.206   l-12.486-2.594c0.607-0.464,0.998-0.813,1.188-0.992c4.248,1.067,8.73,1.993,13.104,2.897   C245.38,130.602,257.371,133.078,261.656,137.658z M156.843,127.816l-4.895,7.995c-3.092-1.062-6.316-2.021-9.678-2.868   c-3.806-0.959-7.677-1.744-11.564-2.39l7.769-8.285C144.339,124.161,150.535,126.052,156.843,127.816z M210.791,130.874   c0.195,0.085,0.4,0.151,0.615,0.196l19.311,4.012c0.014,0.003,0.029,0.005,0.043,0.009c1.354,0.262,2.867,0.698,3.971,1.117   c-0.625,0.456-1.607,1.068-3.145,1.842c-2.742,1.38-6.398,2.855-10.268,4.416c-9.553,3.854-20.379,8.223-26.791,14.52   c-1.686,1.654-3.238,3.51-4.723,5.509c-6.469-9.338-15.604-16.784-27.189-22.339l5.703-9.319c0.285,0.071,0.57,0.141,0.854,0.21   c8.654,2.101,16.076,2.908,22.373,2.908C199.835,133.954,206.167,132.555,210.791,130.874z M29.829,172.48   c0.022-1.002,0.046-2.139,0.046-3.372c0-1.587,0.11-2.831,0.251-3.784c10.509,0.324,46.318,1.701,65.904,5.868   c1.639,0.348,3.341,0.718,5.106,1.1c4.537,0.983,9.56,2.071,15.025,3.14h-86.36C29.785,174.556,29.807,173.546,29.829,172.48z    M130.093,171.526c-10.275-1.649-19.488-3.643-27.62-5.404c-1.46-0.316-2.876-0.623-4.25-0.918l11.401-12.16   c9.156,3.732,16.614,8.43,23.126,14.142L130.093,171.526z M160.242,174.707c-3.387-4.259-7.018-8.404-11.303-12.204l6.98-11.406   c9.887,6.036,17.373,14.505,22.717,23.765C172.255,175.053,166.125,174.981,160.242,174.707z M138.873,143.973   c2.352,0.592,4.609,1.308,6.781,2.124l-5.867,9.589c-1.314-0.811-2.683-1.592-4.117-2.338c-5.08-2.641-11.75-5.174-19.308-7.493   l4.899-5.226C127.786,141.592,133.896,142.718,138.873,143.973z M103.991,142.433c-8.427-2.102-17.4-3.927-26.187-5.362   c7.487-0.033,18.395,0.626,29.522,1.805L103.991,142.433z M97.806,149.031l-13.018,13.887c-14.579-1.948-31.972-2.986-43.796-3.511   c-4.425-1.033-16.539-5.334-17.149-21.51c-0.061-1.626-0.042-3.122,0.045-4.501c10.791,4.083,26.292,8.065,48.565,10.786   C82.042,145.353,90.408,146.964,97.806,149.031z M187.583,114.131l-2.201,1.465l0.076-2.242   C186.171,113.615,186.88,113.874,187.583,114.131z M173.656,109.009l-1.959,1.836l0.1-2.525   C172.417,108.55,173.037,108.78,173.656,109.009z M159.398,103.702l-2.15,1.872l0.01-2.672   C157.968,103.168,158.681,103.434,159.398,103.702z M144.435,98.085l-2.129,1.849l0.078-2.621   C143.056,97.566,143.742,97.824,144.435,98.085z M118.532,101.914c0.967,1.451,2.927,1.841,4.377,0.875l12.29-8.19   c0.307,0.116,0.622,0.235,0.937,0.354l-0.349,11.995c-0.037,1.253,0.672,2.409,1.804,2.945c1.133,0.536,2.476,0.351,3.422-0.47   l9.94-8.636l-0.045,11.732c-0.004,1.239,0.717,2.366,1.844,2.882c1.125,0.516,2.451,0.325,3.387-0.489l9.404-8.187l-0.467,11.565   c-0.051,1.28,0.678,2.464,1.842,2.998c1.166,0.532,2.537,0.308,3.473-0.568l8.781-8.226l-0.307,9.026   c-0.039,1.183,0.584,2.288,1.617,2.864c1.035,0.576,2.301,0.527,3.287-0.129l11.189-7.449c0.189,0.068,0.379,0.136,0.566,0.203   l-0.033,5.268c-0.01,1.743,1.395,3.166,3.139,3.177c0.006,0,0.014,0,0.02,0c1.734-0.001,3.146-1.401,3.156-3.138l0.02-3.058   c4.346,1.537,8.119,2.837,11.043,3.791c-1.656,0.897-3.92,1.902-6.865,2.74c-6.664,1.897-18.207,3.283-35.342-0.878   c-28.02-6.804-56.694-17.768-66.619-21.705c9.317-5.502,16.531-10.776,19.504-13.027c1.048,0.398,2.543,0.967,4.395,1.669   l-8.534,5.688C117.957,98.503,117.565,100.462,118.532,101.914z M91.751,98.22c0.525-5.979,8.927-12.912,13.476-16.037   l11.565,5.113c-4.941,3.55-13.717,9.506-23.923,14.874C91.986,100.938,91.626,99.652,91.751,98.22z M97.17,107.078   c0.239,0.2,0.512,0.367,0.814,0.493c0.204,0.085,12.021,4.972,28.634,10.727l-9.846,10.503c-14.908-1.336-29.17-1.063-39.925-0.855   c-1.489,0.029-2.921,0.057-4.29,0.08c-15.458,0.252-32.095-2.59-45.304-5.642c3.881-5.246,9.995-4.836,12.683-4.346   c4.26,1.279,9.417,2.062,15.545,2.062C69.093,120.101,84.393,113.923,97.17,107.078z M14.084,95.071   c0.012-0.501,0.118-1.693,3.022-1.991c5.904-0.605,14.631,3.535,15.811,8.759c0.53,2.347,0.107,3.978-0.543,5.076   c-0.823-0.833-1.431-1.681-1.834-2.501c-0.297-0.607-0.628-1.12-0.988-1.543c-2.581-3.754-5.893-4.865-13.108-4.884   C14.455,97.982,14.111,96.145,14.084,95.071z M266.917,157.363c-0.275,1.826-1.656,3.644-3.15,4.138   c-11.432,3.781-39.852,12.938-56.846,16.297c-1.791,0.354-4.326,0.661-7.486,0.929c1.166-1.925,2.242-3.643,3.219-5.132   c6.295-9.62,33.246-17.194,49.348-21.72c5.281-1.484,9.453-2.657,12.064-3.637c0.768-0.287,1.365-0.401,1.768-0.401   c0.25,0,0.426,0.045,0.518,0.119C266.96,148.449,267.861,151.048,266.917,157.363z"/></g></svg>