<svg xmlns="http://www.w3.org/2000/svg" xmlns:xlink="http://www.w3.org/1999/xlink" version="1.1" x="0px" y="0px" viewBox="0 0 100 125" enable-background="new 0 0 100 100" xml:space="preserve"><path d="M74.475914,93.415863l-0.0254211-52.8418541c0-0.2053375-0.0481567-0.4079971-0.1404572-0.5912628  c-0.9363861-1.8567314-1.7831573-3.88134-2.5162125-6.0183182c-2.762352-8.0609837-3.7883682-17.3258991-2.8880997-26.0885086  c0.0575256-0.5625029-0.250145-1.0989208-0.7651596-1.3323498c-1.0447464-0.472877-2.1135712-0.9490986-3.2345657-1.4353528  C64.551506,4.954381,64.147522,4.9650826,63.7983818,5.1369772c-0.3464622,0.1718946-0.5992889,0.4875917-0.6929283,0.8634858  c-0.3202095,1.3017502-0.574707,2.6916213-0.8133202,4.0911069c-2.1487656,8.8356819-6.3550835,13.4842758-12.2894592,13.4842758  c-5.934124,0-10.1392708-4.6481762-12.2878685-13.4831047c-0.2386093-1.3999043-0.4932747-2.7901936-0.8135948-4.092278  c-0.0936165-0.3758941-0.3464432-0.6915913-0.6929054-0.8634858c-0.3478012-0.170557-0.7531242-0.1825962-1.1062775-0.0287604  C33.9796944,5.593133,32.9122086,6.0700235,31.868803,6.542232c-0.5150146,0.2334285-0.8226852,0.7698464-0.7651634,1.3323498  c0.9002705,8.7639465-0.1257439,18.0295315-2.8894348,26.0891781c-0.7491131,2.18647-1.615942,4.2505455-2.5737362,6.1353645  c-0.0936394,0.1846008-0.1431332,0.3892708-0.1431332,0.5966148l0.0321045,52.9896698  c0,0.7263718,0.5885887,1.3142929,1.3149586,1.3142929h46.3165512c0.0093689,0.0006714,0.0200653,0,0.0267563,0  c0.7263718,0,1.3149567-0.5885849,1.3149567-1.3149567C74.5026627,93.5924377,74.4933014,93.5028152,74.475914,93.415863z   M50.0026741,26.2057648c3.1574783,0,6.817009-1.0414848,9.894722-4.6836243  c-1.5388565,4.2960243-4.2135048,7.3229084-9.894722,7.3229084c-5.680294,0-8.3546104-3.0264645-9.893383-7.3223248  C43.1865044,25.1643639,46.8453674,26.2057648,50.0026741,26.2057648z"/></svg>