<svg xmlns="http://www.w3.org/2000/svg" xmlns:xlink="http://www.w3.org/1999/xlink" version="1.1" x="0px" y="0px" viewBox="0 0 90 112.5" enable-background="new 0 0 90 90" xml:space="preserve"><path d="M73.277,36.121c-4.684,1.196-4.748-4.402-4.748-4.402c-3.578,0.225-4.602-2.091-4.895-3.535l3.756-3.971  c0.227,0.129,0.438,0.174,0.547,0.056l4.164-4.401c1.549-1.635,1.477-4.226-0.16-5.773c-1.637-1.548-4.227-1.476-5.773,0.161  l-0.598,0.63c-0.355,0.379-0.34,0.975,0.039,1.333c0.377,0.358,0.975,0.341,1.332-0.037l0.596-0.63  c0.834-0.881,2.229-0.92,3.109-0.086c0.881,0.833,0.92,2.228,0.086,3.109l-4.164,4.401c-0.121,0.127-0.041,0.363,0.129,0.601  l-3.316,3.507c-4.531,0.453-4.688-4.479-4.688-4.479c-4.387,0.619-4.41-4.091-4.41-4.091L21.481,71.088l-4.758,5.03l0.953,0.902  l4.68-4.948L73.277,36.121z"/></svg>
